<?xml version="1.0" encoding="UTF-8"?>
<svg width="22px" height="16px" viewBox="0 0 22 16" version="1.1" xmlns="http://www.w3.org/2000/svg" xmlns:xlink="http://www.w3.org/1999/xlink">
    <g id="Show-Visual-Page" stroke="none" stroke-width="1" fill="none" fill-rule="evenodd">
        <g id="2" transform="translate(-506.000000, -779.000000)" fill="#363636">
            <g id="Stats" transform="translate(363.000000, 687.000000)">
                <g id="Actions" transform="translate(55.000000, 89.000000)">
                    <path d="M102.285731,12.2142776 C102.285731,12.0133845 102.129481,11.8571343 101.928588,11.8571343 L99.4285851,11.8571343 L99.4285851,7.92855823 C99.4285851,7.73882586 99.2611741,7.57141495 99.0714418,7.57141495 L96.9285821,7.57141495 C96.7388497,7.57141495 96.5714388,7.73882586 96.5714388,7.92855823 L96.5714388,11.8571343 L94.0714358,11.8571343 C93.8705427,11.8571343 93.7142925,12.0245453 93.7142925,12.2142776 C93.7142925,12.3035634 93.7477747,12.40401 93.8147391,12.4709744 L97.7433152,16.3995505 C97.8102796,16.4665148 97.8995654,16.499997 98.0000119,16.499997 C98.0892977,16.499997 98.1897443,16.4665148 98.2567087,16.3995505 L102.174124,12.4821351 C102.241088,12.40401 102.285731,12.3147242 102.285731,12.2142776 Z M109.428597,14.7142806 C109.428597,17.0803549 107.508952,19 105.142878,19 L93.000006,19 C90.2433062,19 88,16.7566938 88,13.999994 C88,12.0580274 89.1272335,10.2946325 90.8794677,9.47989937 C90.868307,9.31248845 90.8571463,9.15623827 90.8571463,8.99998808 C90.8571463,5.84150217 93.4129529,3.28569555 96.5714388,3.28569555 C98.8928701,3.28569555 100.979926,4.69194723 101.861624,6.83480693 C102.375017,6.38837782 103.0335,6.14284182 103.714304,6.14284182 C105.287967,6.14284182 106.571451,7.42632549 106.571451,8.99998808 C106.571451,9.54686373 106.415201,10.0825787 106.113861,10.5401685 C108.055827,10.9977583 109.428597,12.7276711 109.428597,14.7142806 Z" id="cloud-download---FontAwesome"></path>
                </g>
            </g>
        </g>
    </g>
</svg>