<?xml version="1.0" encoding="UTF-8"?>
<svg width="18px" height="18px" viewBox="0 0 18 18" version="1.1" xmlns="http://www.w3.org/2000/svg" xmlns:xlink="http://www.w3.org/1999/xlink">
    <g id="Show-Visual-Page" stroke="none" stroke-width="1" fill="none" fill-rule="evenodd">
        <g id="2" transform="translate(-629.000000, -781.000000)" fill="#2A648E">
            <path d="M642.928588,781.285696 L632.21429,781.285696 C630.439734,781.285696 629,782.725429 629,784.499985 L629,795.214284 C629,796.988839 630.439734,798.428573 632.21429,798.428573 L638.151797,798.428573 L638.151797,791.78794 L635.919651,791.78794 L635.919651,789.198651 L638.151797,789.198651 L638.151797,787.290167 C638.151797,785.080343 639.513405,783.874984 641.488854,783.874984 C642.426355,783.874984 643.241088,783.941949 643.475464,783.975431 L643.475464,786.285702 L642.113855,786.296862 C641.031264,786.296862 640.830371,786.799095 640.830371,787.546864 L640.830371,789.198651 L643.386178,789.198651 L643.051356,791.78794 L640.830371,791.78794 L640.830371,798.428573 L642.928588,798.428573 C644.703144,798.428573 646.142878,796.988839 646.142878,795.214284 L646.142878,784.499985 C646.142878,782.725429 644.703144,781.285696 642.928588,781.285696 Z" id="facebook-square---FontAwesome"></path>
        </g>
    </g>
</svg>