<?xml version="1.0" encoding="UTF-8"?>
<svg width="18px" height="18px" viewBox="0 0 18 18" version="1.1" xmlns="http://www.w3.org/2000/svg" xmlns:xlink="http://www.w3.org/1999/xlink">
    <g id="Show-Visual-Page" stroke="none" stroke-width="1" fill="none" fill-rule="evenodd">
        <g id="2" transform="translate(-687.000000, -781.000000)" fill="#E05139">
            <path d="M697.662984,789.957581 C697.662984,789.678563 697.629502,789.455348 697.59602,789.243294 L693.555836,789.243294 L693.555836,790.71651 L695.977714,790.71651 C695.888428,791.341511 695.252267,792.55803 693.555836,792.55803 C692.08262,792.55803 690.888423,791.352672 690.888423,789.857134 C690.888423,788.361597 692.08262,787.156238 693.555836,787.156238 C694.38173,787.156238 694.939767,787.502221 695.263428,787.814721 L696.424143,786.687488 C695.676375,785.995523 694.705391,785.571415 693.555836,785.571415 C691.178601,785.571415 689.270117,787.49106 689.270117,789.857134 C689.270117,792.223209 691.178601,794.142854 693.555836,794.142854 C696.022357,794.142854 697.662984,792.40178 697.662984,789.957581 Z M701.513435,790.470974 L702.729954,790.470974 L702.729954,789.243294 L701.513435,789.243294 L701.513435,788.015614 L700.285755,788.015614 L700.285755,789.243294 L699.058075,789.243294 L699.058075,790.470974 L700.285755,790.470974 L700.285755,791.698654 L701.513435,791.698654 L701.513435,790.470974 Z M704.571475,784.499985 L704.571475,795.214284 C704.571475,796.988839 703.131741,798.428573 701.357185,798.428573 L690.642887,798.428573 C688.868331,798.428573 687.428597,796.988839 687.428597,795.214284 L687.428597,784.499985 C687.428597,782.725429 688.868331,781.285696 690.642887,781.285696 L701.357185,781.285696 C703.131741,781.285696 704.571475,782.725429 704.571475,784.499985 Z" id="google-plus-square---FontAwesome"></path>
        </g>
    </g>
</svg>