<?xml version="1.0" encoding="UTF-8"?>
<svg width="18px" height="18px" viewBox="0 0 18 18" version="1.1" xmlns="http://www.w3.org/2000/svg" xmlns:xlink="http://www.w3.org/1999/xlink">
    <g id="Show-Visual-Page" stroke="none" stroke-width="1" fill="none" fill-rule="evenodd">
        <g id="2" transform="translate(-418.000000, -780.000000)" fill="#363636">
            <g id="Stats" transform="translate(363.000000, 687.000000)">
                <g id="Actions" transform="translate(55.000000, 89.000000)">
                    <path d="M13.5714447,14.2857075 C12.6339436,14.2857075 11.7745676,14.6540115 11.1384061,15.24553 L7.1205442,13.2365991 C7.13170493,13.1138311 7.14286566,12.9799023 7.14286566,12.8571343 C7.14286566,12.7343663 7.13170493,12.6004376 7.1205442,12.4776696 L11.1384061,10.4687386 C11.7745676,11.0602572 12.6339436,11.4285612 13.5714447,11.4285612 C15.5468935,11.4285612 17.1428776,9.83257717 17.1428776,7.85712838 C17.1428776,5.8816796 15.5468935,4.28569555 13.5714447,4.28569555 C11.595996,4.28569555 10.0000119,5.8816796 10.0000119,7.85712838 C10.0000119,7.97989639 10.0111726,8.11382512 10.0223334,8.23659312 L6.00447144,10.2455241 C5.36830997,9.65400552 4.50893395,9.28570151 3.57143283,9.28570151 C1.59598405,9.28570151 0,10.8816856 0,12.8571343 C0,14.8325831 1.59598405,16.4285672 3.57143283,16.4285672 C4.50893395,16.4285672 5.36830997,16.0602632 6.00447144,15.4687446 L10.0223334,17.4776756 C10.0111726,17.6004436 10.0000119,17.7343723 10.0000119,17.8571403 C10.0000119,19.8325891 11.595996,21.4285731 13.5714447,21.4285731 C15.5468935,21.4285731 17.1428776,19.8325891 17.1428776,17.8571403 C17.1428776,15.8816915 15.5468935,14.2857075 13.5714447,14.2857075 Z" id="share-alt---FontAwesome"></path>
                </g>
            </g>
        </g>
    </g>
</svg>