<?xml version="1.0" encoding="UTF-8"?>
<svg width="18px" height="15px" viewBox="0 0 18 15" version="1.1" xmlns="http://www.w3.org/2000/svg" xmlns:xlink="http://www.w3.org/1999/xlink">
    <g id="Symbols" stroke="none" stroke-width="1" fill="none" fill-rule="evenodd">
        <g id="Nav" transform="translate(-422.000000, -8.000000)" fill="#FFFFFF">
            <path d="M429.142866,21.9285702 C429.142866,22.2410705 429.287955,23 428.785722,23 L425.21429,23 C423.439734,23 422,21.5602661 422,19.7857105 L422,11.9285582 C422,10.1540025 423.439734,8.71426868 425.21429,8.71426868 L428.785722,8.71426868 C428.975455,8.71426868 429.142866,8.8816796 429.142866,9.07141197 C429.142866,9.38391234 429.287955,10.1428418 428.785722,10.1428418 L425.21429,10.1428418 C424.232146,10.1428418 423.428573,10.9464142 423.428573,11.9285582 L423.428573,19.7857105 C423.428573,20.7678545 424.232146,21.5714269 425.21429,21.5714269 L428.428579,21.5714269 C428.707597,21.5714269 429.142866,21.5156232 429.142866,21.9285702 Z M439.500021,15.8571343 C439.500021,16.0468667 439.421896,16.2254384 439.287967,16.3593671 L433.216531,22.4308029 C433.082602,22.5647316 432.904031,22.6428567 432.714298,22.6428567 C432.323673,22.6428567 432.000012,22.3191956 432.000012,21.9285702 L432.000012,18.7142806 L427.000006,18.7142806 C426.60938,18.7142806 426.285719,18.3906195 426.285719,17.999994 L426.285719,13.7142746 C426.285719,13.3236492 426.60938,12.9999881 427.000006,12.9999881 L432.000012,12.9999881 L432.000012,9.78569853 C432.000012,9.39507307 432.323673,9.07141197 432.714298,9.07141197 C432.904031,9.07141197 433.082602,9.14953706 433.216531,9.28346579 L439.287967,15.3549016 C439.421896,15.4888303 439.500021,15.667402 439.500021,15.8571343 Z" id="sign-out---FontAwesome"></path>
        </g>
    </g>
</svg>
