<?xml version="1.0" encoding="UTF-8"?>
<svg width="18px" height="15px" viewBox="0 0 18 15" version="1.1" xmlns="http://www.w3.org/2000/svg" xmlns:xlink="http://www.w3.org/1999/xlink">
    <g id="Symbols" stroke="none" stroke-width="1" fill="none" fill-rule="evenodd">
        <g id="Nav" transform="translate(-395.000000, -5.000000)" fill="#FFFFFF">
            <path d="M408.214301,12.8571343 C408.214301,13.0468667 408.136176,13.2254384 408.002248,13.3593671 L401.930812,19.4308029 C401.796883,19.5647316 401.618311,19.6428567 401.428579,19.6428567 C401.037954,19.6428567 400.714293,19.3191956 400.714293,18.9285702 L400.714293,15.7142806 L395.714287,15.7142806 C395.323661,15.7142806 395,15.3906195 395,14.999994 L395,10.7142746 C395,10.3236492 395.323661,9.99998808 395.714287,9.99998808 L400.714293,9.99998808 L400.714293,6.78569853 C400.714293,6.39507307 401.037954,6.07141197 401.428579,6.07141197 C401.618311,6.07141197 401.796883,6.14953706 401.930812,6.28346579 L408.002248,12.3549016 C408.136176,12.4888303 408.214301,12.667402 408.214301,12.8571343 Z M412.142878,8.92855823 L412.142878,16.7857105 C412.142878,18.5602661 410.703144,20 408.928588,20 L405.357155,20 C405.167423,20 405.000012,19.8325891 405.000012,19.6428567 C405.000012,19.3303563 404.854922,18.5714269 405.357155,18.5714269 L408.928588,18.5714269 C409.910732,18.5714269 410.714304,17.7678545 410.714304,16.7857105 L410.714304,8.92855823 C410.714304,7.9464142 409.910732,7.14284182 408.928588,7.14284182 L405.714298,7.14284182 C405.43528,7.14284182 405.000012,7.19864545 405.000012,6.78569853 C405.000012,6.47319816 404.854922,5.71426868 405.357155,5.71426868 L408.928588,5.71426868 C410.703144,5.71426868 412.142878,7.15400254 412.142878,8.92855823 Z" id="sign-in---FontAwesome"></path>
        </g>
    </g>
</svg>
