<?xml version="1.0" encoding="UTF-8"?>
<svg width="18px" height="18px" viewBox="0 0 18 18" version="1.1" xmlns="http://www.w3.org/2000/svg" xmlns:xlink="http://www.w3.org/1999/xlink">
    <g id="Show-Visual-Page" stroke="none" stroke-width="1" fill="none" fill-rule="evenodd">
        <g id="2" transform="translate(-647.000000, -781.000000)" fill="#31B3EF">
            <path d="M661.285731,786.665166 C660.861624,786.854899 660.415195,786.977667 659.935283,787.044631 C660.426355,786.754452 660.794659,786.285702 660.973231,785.738826 C660.515641,786.006683 660.013408,786.207576 659.477693,786.308023 C659.053586,785.850433 658.439746,785.571415 657.770102,785.571415 C656.475458,785.571415 655.426349,786.620523 655.426349,787.915168 C655.426349,788.093739 655.43751,788.283472 655.482153,788.450883 C653.529026,788.350436 651.799113,787.424096 650.638397,785.995523 C650.437504,786.341505 650.314736,786.754452 650.314736,787.17856 C650.314736,787.993293 650.694201,788.707579 651.330362,789.131687 C650.939737,789.120526 650.571433,789.008919 650.21429,788.841508 L650.21429,788.86383 C650.21429,790.002224 651.073666,790.950886 652.145095,791.162939 C651.944202,791.218743 651.787952,791.252225 651.575898,791.252225 C651.430809,791.252225 651.285719,791.229904 651.14063,791.207582 C651.44197,792.133923 652.301346,792.814727 653.328133,792.837049 C652.52456,793.462049 651.520095,793.841514 650.415183,793.841514 C650.22545,793.841514 650.035718,793.830353 649.857146,793.808032 C650.895094,794.466515 652.122774,794.85714 653.450901,794.85714 C657.758941,794.85714 660.125016,791.285707 660.125016,788.183025 C660.125016,788.082579 660.125016,787.982132 660.113855,787.881686 C660.571445,787.558024 660.973231,787.145078 661.285731,786.665166 Z M664.142878,784.499985 L664.142878,795.214284 C664.142878,796.988839 662.703144,798.428573 660.928588,798.428573 L650.21429,798.428573 C648.439734,798.428573 647,796.988839 647,795.214284 L647,784.499985 C647,782.725429 648.439734,781.285696 650.21429,781.285696 L660.928588,781.285696 C662.703144,781.285696 664.142878,782.725429 664.142878,784.499985 Z" id="twitter-square---FontAwesome"></path>
        </g>
    </g>
</svg>