<?xml version="1.0" encoding="UTF-8"?>
<svg width="22px" height="18px" viewBox="0 0 22 18" version="1.1" xmlns="http://www.w3.org/2000/svg" xmlns:xlink="http://www.w3.org/1999/xlink">
    <g id="Show-Visual-Page" stroke="none" stroke-width="1" fill="none" fill-rule="evenodd">
        <g id="2" transform="translate(-665.000000, -781.000000)" fill="#43484D">
            <path d="M672.142866,786.285702 C672.142866,787.468739 671.183043,788.428561 670.000006,788.428561 C668.816969,788.428561 667.857146,787.468739 667.857146,786.285702 C667.857146,785.102664 668.816969,784.142842 670.000006,784.142842 C671.183043,784.142842 672.142866,785.102664 672.142866,786.285702 Z M683.571451,790.571421 L683.571451,795.571427 L667.857146,795.571427 L667.857146,793.428567 L671.428579,789.857134 L673.214296,791.642851 L678.928588,785.928558 L683.571451,790.571421 Z M684.642881,782.714269 L666.785716,782.714269 C666.595984,782.714269 666.428573,782.88168 666.428573,783.071412 L666.428573,796.642857 C666.428573,796.832589 666.595984,797 666.785716,797 L684.642881,797 C684.832613,797 685.000024,796.832589 685.000024,796.642857 L685.000024,783.071412 C685.000024,782.88168 684.832613,782.714269 684.642881,782.714269 Z M686.428597,783.071412 L686.428597,796.642857 C686.428597,797.625001 685.625025,798.428573 684.642881,798.428573 L666.785716,798.428573 C665.803572,798.428573 665,797.625001 665,796.642857 L665,783.071412 C665,782.089268 665.803572,781.285696 666.785716,781.285696 L684.642881,781.285696 C685.625025,781.285696 686.428597,782.089268 686.428597,783.071412 Z" id="picture-o---FontAwesome"></path>
        </g>
    </g>
</svg>