<?xml version="1.0" encoding="iso-8859-1"?>
<!-- Generator: Adobe Illustrator 16.0.0, SVG Export Plug-In . SVG Version: 6.00 Build 0)  -->
<!DOCTYPE svg PUBLIC "-//W3C//DTD SVG 1.1//EN" "http://www.w3.org/Graphics/SVG/1.1/DTD/svg11.dtd">
<svg xmlns="http://www.w3.org/2000/svg" xmlns:xlink="http://www.w3.org/1999/xlink" version="1.1" id="Capa_1" x="0px" y="0px" width="512px" height="512px" viewBox="0 0 464.804 464.803" style="enable-background:new 0 0 464.804 464.803;" xml:space="preserve">
<g>
	<g>
		<path d="M369.395,194.2c-2.697-3.803-5.502-7.512-8.491-11.07l0.092,0.016c-3.182-15.236-20.201-35.209-20.201-35.209    s0.252,8.235,0.128,15.2c-1.423-1.212-2.897-2.373-4.368-3.535c-0.008-0.046-0.016-0.088-0.023-0.134    c-5.727-35.253-35.955-56.857-35.955-56.857c5.113,5.118,5.851,24.85,0,16.812c-5.851-8.037-32.896-43.138-24.854-21.244    c8.043,21.896-10.972,2.405-10.972,2.405s-24.854-69.627-32.896-46.232c-5.66,16.47-21.431,32.539-28.506,39.864    c3.28-7.604,5.113-23.049,5.113-23.049s-4.39,13.161-27.054,28.515c-9.734,6.594-17.717,16.21-23.678,25.05    c2.012-8.644,1.311-14.77-12.245,2.002c-24.229,29.971-31.668,42.36-32.807,33.632c-1.258-9.691,4.389-22.666,4.389-22.666    c-12.419,16.894-21.348,41.13-25.798,54.936c0.07,0,0.142-0.006,0.212-0.006h3.924v0.098v3.45v195.018    c30.713,42.15,80.311,69.649,136.45,69.649c56.8,0,106.925-28.129,137.541-71.112V194.2z" fill="#00d1b2"/>
		<path d="M439.437,218.038C433.225,93.148,346.597,3.959,228.853,3.959c-120.033,0-207.689,92.673-210.837,221.382    c9.235-10.175,20.496-18.442,33.208-24.11C63.68,103.458,134.548,35.368,228.853,35.368c93.343,0,163.681,66.728,177.19,162.917    C418.494,202.646,429.799,209.41,439.437,218.038z" fill="#00d1b2"/>
		<path d="M407.101,207.056c-9.317-3.721-19.336-6.045-29.855-6.486v5.78v171.235v5.783c48.639-2.064,87.559-42.267,87.559-91.397    c0-24.289-9.538-46.382-25.047-62.774C430.696,219.595,419.552,212.025,407.101,207.056z" fill="#00d1b2"/>
		<path d="M87.555,383.36v-3.979V204.545v-3.981c-13.395,0.567-26.002,4.116-37.305,9.854c-10.772,5.471-20.302,12.99-28.106,22.075    C8.39,248.506,0,269.245,0,291.955C0,341.094,38.922,381.304,87.555,383.36z" fill="#00d1b2"/>
	</g>
</g>
<g>
</g>
<g>
</g>
<g>
</g>
<g>
</g>
<g>
</g>
<g>
</g>
<g>
</g>
<g>
</g>
<g>
</g>
<g>
</g>
<g>
</g>
<g>
</g>
<g>
</g>
<g>
</g>
<g>
</g>
</svg>
