<?xml version="1.0" encoding="UTF-8"?>
<svg width="26px" height="27px" viewBox="0 0 26 27" version="1.1" xmlns="http://www.w3.org/2000/svg" xmlns:xlink="http://www.w3.org/1999/xlink">
    <g id="Visual-Player" stroke="none" stroke-width="1" fill="none" fill-rule="evenodd">
        <g id="Layout" transform="translate(-422.000000, -101.000000)" fill="#FFFFFF">
            <g id="Control-bar" transform="translate(0.000000, 90.000000)">
                <g id="Player" transform="translate(422.000000, 6.000000)">
                    <path d="M25.7143164,7.57140303 C25.7143164,7.13613465 25.4464589,6.75108955 25.0614138,6.58367863 C24.6596276,6.41626772 24.1908771,6.49997318 23.8895374,6.81805391 L21.7131955,8.9776547 C19.3527016,6.75108955 16.1551532,5.42854333 12.8571582,5.42854333 C5.77567653,5.42854333 0,11.2042199 0,18.2857015 C0,25.3671832 5.77567653,31.1428597 12.8571582,31.1428597 C16.6908681,31.1428597 20.3069439,29.4520095 22.7511432,26.5055774 C22.9185541,26.2879432 22.9185541,25.9698625 22.717661,25.7857105 L20.4241315,23.4754398 C20.3069439,23.3749933 20.156274,23.32477 20.0056042,23.32477 C19.8549344,23.3415111 19.7042646,23.4084755 19.6205591,23.5256631 C17.9799321,25.6517817 15.5189917,26.8571403 12.8571582,26.8571403 C8.13617041,26.8571403 4.28571939,23.0066893 4.28571939,18.2857015 C4.28571939,13.5647137 8.13617041,9.71426272 12.8571582,9.71426272 C15.0502412,9.71426272 17.1261365,10.5513173 18.6997991,12.0077922 L16.3895285,14.3180629 C16.0714477,14.6194025 15.9877423,15.0881531 16.1551532,15.4731982 C16.3225641,15.8749844 16.7076092,16.1428418 17.1428776,16.1428418 L24.6428865,16.1428418 C25.2288247,16.1428418 25.7143164,15.6573502 25.7143164,15.071412 L25.7143164,7.57140303 Z" id="-copy" transform="translate(12.857158, 18.285702) scale(-1, 1) translate(-12.857158, -18.285702) "></path>
                </g>
            </g>
        </g>
    </g>
</svg>