<?xml version="1.0" encoding="UTF-8"?>
<svg width="26px" height="27px" viewBox="0 0 26 27" version="1.1" xmlns="http://www.w3.org/2000/svg" xmlns:xlink="http://www.w3.org/1999/xlink">
    <g id="Visual-Player" stroke="none" stroke-width="1" fill="none" fill-rule="evenodd">
        <g id="Layout" transform="translate(-576.000000, -101.000000)" fill="#FFFFFF">
            <g id="Control-bar" transform="translate(0.000000, 90.000000)">
                <g id="Player" transform="translate(422.000000, 6.000000)">
                    <path d="M179.714316,7.57140303 C179.714316,7.13613465 179.446459,6.75108955 179.061414,6.58367863 C178.659628,6.41626772 178.190877,6.49997318 177.889537,6.81805391 L175.713196,8.9776547 C173.352702,6.75108955 170.155153,5.42854333 166.857158,5.42854333 C159.775677,5.42854333 154,11.2042199 154,18.2857015 C154,25.3671832 159.775677,31.1428597 166.857158,31.1428597 C170.690868,31.1428597 174.306944,29.4520095 176.751143,26.5055774 C176.918554,26.2879432 176.918554,25.9698625 176.717661,25.7857105 L174.424131,23.4754398 C174.306944,23.3749933 174.156274,23.32477 174.005604,23.32477 C173.854934,23.3415111 173.704265,23.4084755 173.620559,23.5256631 C171.979932,25.6517817 169.518992,26.8571403 166.857158,26.8571403 C162.13617,26.8571403 158.285719,23.0066893 158.285719,18.2857015 C158.285719,13.5647137 162.13617,9.71426272 166.857158,9.71426272 C169.050241,9.71426272 171.126136,10.5513173 172.699799,12.0077922 L170.389528,14.3180629 C170.071448,14.6194025 169.987742,15.0881531 170.155153,15.4731982 C170.322564,15.8749844 170.707609,16.1428418 171.142878,16.1428418 L178.642887,16.1428418 C179.228825,16.1428418 179.714316,15.6573502 179.714316,15.071412 L179.714316,7.57140303 Z" id=""></path>
                </g>
            </g>
        </g>
    </g>
</svg>