<?xml version="1.0" encoding="UTF-8"?>
<svg width="22px" height="20px" viewBox="0 0 22 20" version="1.1" xmlns="http://www.w3.org/2000/svg" xmlns:xlink="http://www.w3.org/1999/xlink">
    <g id="Visual-Player" stroke="none" stroke-width="1" fill="none" fill-rule="evenodd">
        <g id="Layout" transform="translate(-663.000000, -103.000000)" fill="#FFFFFF">
            <g id="Control-bar" transform="translate(0.000000, 90.000000)">
                <path d="M673.714298,21.3571314 C675.488854,21.3571314 676.928588,22.7968652 676.928588,24.5714209 C676.928588,26.3459766 675.488854,27.7857105 673.714298,27.7857105 C671.939743,27.7857105 670.500009,26.3459766 670.500009,24.5714209 C670.500009,22.7968652 671.939743,21.3571314 673.714298,21.3571314 Z M681.571451,16.7142687 C683.145113,16.7142687 684.428597,17.9977524 684.428597,19.5714149 L684.428597,29.5714269 C684.428597,31.1450895 683.145113,32.4285731 681.571451,32.4285731 L665.857146,32.4285731 C664.283484,32.4285731 663,31.1450895 663,29.5714269 L663,19.5714149 C663,17.9977524 664.283484,16.7142687 665.857146,16.7142687 L668.357149,16.7142687 L668.926346,15.1964097 C669.205365,14.4598017 670.075901,13.8571224 670.857152,13.8571224 L676.571445,13.8571224 C677.352696,13.8571224 678.223232,14.4598017 678.502251,15.1964097 L679.071448,16.7142687 L681.571451,16.7142687 Z M673.714298,29.5714269 C676.470998,29.5714269 678.714304,27.3281206 678.714304,24.5714209 C678.714304,21.8147212 676.470998,19.5714149 673.714298,19.5714149 C670.957599,19.5714149 668.714293,21.8147212 668.714293,24.5714209 C668.714293,27.3281206 670.957599,29.5714269 673.714298,29.5714269 Z" id="camera---FontAwesome"></path>
            </g>
        </g>
    </g>
</svg>