<?xml version="1.0" encoding="UTF-8"?>
<svg width="18px" height="18px" viewBox="0 0 18 18" version="1.1" xmlns="http://www.w3.org/2000/svg" xmlns:xlink="http://www.w3.org/1999/xlink">
    <g id="Show-Visual-Page" stroke="none" stroke-width="1" fill="none" fill-rule="evenodd">
        <g id="2" transform="translate(-938.000000, -514.000000)" fill="#FFFFFF">
            <g id="Add-comment" transform="translate(442.000000, 504.000000)">
                <path d="M500.603068,26 L501.618694,24.9843738 L498.995923,22.3616028 L497.980297,23.377229 L497.980297,24.5714269 L499.40887,24.5714269 L499.40887,26 L500.603068,26 Z M506.440129,15.6428448 C506.440129,15.4977553 506.339682,15.3973088 506.194593,15.3973088 C506.127628,15.3973088 506.060664,15.4196302 506.00486,15.4754339 L499.955746,21.5245482 C499.899942,21.5803519 499.877621,21.6473162 499.877621,21.7142806 C499.877621,21.8593701 499.978068,21.9598166 500.123157,21.9598166 C500.190121,21.9598166 500.257086,21.9374952 500.312889,21.8816915 L506.362004,15.8325772 C506.417807,15.7767735 506.440129,15.7098092 506.440129,15.6428448 Z M505.837449,13.4999851 L510.480312,18.1428478 L501.194587,27.4285731 L496.551724,27.4285731 L496.551724,22.7857105 L505.837449,13.4999851 Z M513.460226,14.5714149 C513.460226,14.9508797 513.303976,15.3191837 513.04728,15.5758804 L511.194599,17.4285612 L506.551736,12.7856985 L508.404417,10.9441785 C508.661114,10.676321 509.029418,10.5200708 509.408882,10.5200708 C509.788347,10.5200708 510.156651,10.676321 510.424509,10.9441785 L513.04728,13.5557887 C513.303976,13.8236462 513.460226,14.1919502 513.460226,14.5714149 Z" id="pencil---FontAwesome"></path>
            </g>
        </g>
    </g>
</svg>