<?xml version="1.0" encoding="UTF-8"?>
<svg width="20px" height="16px" viewBox="0 0 20 16" version="1.1" xmlns="http://www.w3.org/2000/svg" xmlns:xlink="http://www.w3.org/1999/xlink">
    <g id="User-Profile" stroke="none" stroke-width="1" fill="none" fill-rule="evenodd">
        <g id="Layout" transform="translate(-497.000000, -107.000000)" fill="#FFFFFF">
            <path d="M506.910726,119.071424 L508.205371,117.776779 L506.50894,116.080349 L505.214296,117.374993 L505.214296,117.999994 L506.285725,117.999994 L506.285725,119.071424 L506.910726,119.071424 Z M511.821446,111.0357 C511.721,110.935253 511.553589,110.946414 511.453142,111.046861 L507.546888,114.953115 C507.446441,115.053562 507.43528,115.220973 507.535727,115.321419 C507.636173,115.421866 507.803584,115.410705 507.904031,115.310259 L511.810286,111.404004 C511.910732,111.303557 511.921893,111.136147 511.821446,111.0357 Z M512.714304,117.665172 L512.714304,119.78571 C512.714304,121.560266 511.274571,123 509.500015,123 L500.21429,123 C498.439734,123 497,121.560266 497,119.78571 L497,110.499985 C497,108.725429 498.439734,107.285696 500.21429,107.285696 L509.500015,107.285696 C509.946444,107.285696 510.392873,107.374981 510.80582,107.564714 C510.906267,107.609357 510.984392,107.709803 511.006713,107.82141 C511.029035,107.944178 510.995552,108.055786 510.906267,108.145072 L510.359391,108.691947 C510.258944,108.792394 510.125016,108.825876 510.002248,108.781233 C509.834837,108.73659 509.667426,108.714269 509.500015,108.714269 L500.21429,108.714269 C499.232146,108.714269 498.428573,109.517841 498.428573,110.499985 L498.428573,119.78571 C498.428573,120.767854 499.232146,121.571427 500.21429,121.571427 L509.500015,121.571427 C510.482159,121.571427 511.285731,120.767854 511.285731,119.78571 L511.285731,118.379459 C511.285731,118.290173 511.319213,118.200887 511.386178,118.133923 L512.100464,117.419636 C512.212072,117.308029 512.357161,117.285707 512.49109,117.341511 C512.625019,117.397315 512.714304,117.520083 512.714304,117.665172 Z M511.642875,109.428555 L514.857164,112.642845 L507.357155,120.142854 L504.142866,120.142854 L504.142866,116.928564 L511.642875,109.428555 Z M516.598238,110.901771 L515.571451,111.928558 L512.357161,108.714269 L513.383948,107.687482 C513.796895,107.274535 514.48886,107.274535 514.901807,107.687482 L516.598238,109.383912 C517.011185,109.796859 517.011185,110.488824 516.598238,110.901771 Z" id="Pencil-Square-Outlined---FontAwesome"></path>
        </g>
    </g>
</svg>