<?xml version="1.0" encoding="UTF-8"?>
<svg width="83px" height="71px" viewBox="0 0 83 71" version="1.1" xmlns="http://www.w3.org/2000/svg" xmlns:xlink="http://www.w3.org/1999/xlink">
    <g id="Favorite-Icon" stroke="none" stroke-width="1" fill="none" fill-rule="evenodd">
        <g id="Default" transform="translate(-359.000000, -365.000000)">
            <path d="M400.384214,433.444366 C400.274526,433.444366 400.181759,433.407259 400.11972,433.34522 L371.26657,405.508769 L371.177066,405.426527 C370.91965,405.201288 370.283884,404.579255 369.567051,403.802171 C368.405763,402.543275 367.251236,401.123036 366.184258,399.577347 C363.237703,395.30879 361.5,390.895181 361.5,386.615862 C361.5,374.48005 368.632027,367.5 381.077739,367.5 C386.869468,367.5 393.078722,371.276763 398.627742,376.755542 L400.384214,378.48978 L402.140685,376.755542 C407.689705,371.276763 413.898959,367.5 419.690688,367.5 C432.136401,367.5 439.268427,374.48005 439.268427,386.615862 C439.268427,390.973735 437.468361,395.464709 434.425728,399.808543 C433.378303,401.303906 432.254868,402.677051 431.118159,403.910447 C430.715726,404.347111 430.339486,404.735867 429.985737,405.08644 C429.792077,405.278361 429.425079,405.631166 429.423668,405.632577 L400.682259,433.312293 C400.586668,433.407259 400.493901,433.444366 400.384214,433.444366 Z" id="Heart---FontAwesome"></path>
        </g>
    </g>
</svg>