<?xml version="1.0" encoding="UTF-8"?>
<svg width="15px" height="15px" viewBox="0 0 15 15" version="1.1" xmlns="http://www.w3.org/2000/svg" xmlns:xlink="http://www.w3.org/1999/xlink">
    <g id="User-Profile" stroke="none" stroke-width="1" fill="none" fill-rule="evenodd">
        <g id="Layout" transform="translate(-875.000000, -225.000000)" fill="#FFFFFF">
            <path d="M889.142874,231.964276 C889.142874,231.431909 888.710954,230.999989 888.178587,230.999989 L884.000011,230.999989 L884.000011,226.821413 C884.000011,226.289046 883.568091,225.857126 883.035724,225.857126 L881.10715,225.857126 C880.574783,225.857126 880.142863,226.289046 880.142863,226.821413 L880.142863,230.999989 L875.964287,230.999989 C875.43192,230.999989 875,231.431909 875,231.964276 L875,233.89285 C875,234.425217 875.43192,234.857137 875.964287,234.857137 L880.142863,234.857137 L880.142863,239.035713 C880.142863,239.56808 880.574783,240 881.10715,240 L883.035724,240 C883.568091,240 884.000011,239.56808 884.000011,239.035713 L884.000011,234.857137 L888.178587,234.857137 C888.710954,234.857137 889.142874,234.425217 889.142874,233.89285 L889.142874,231.964276 Z" id="plus---FontAwesome"></path>
        </g>
    </g>
</svg>