<?xml version="1.0" encoding="UTF-8"?>
<svg width="18px" height="17px" viewBox="0 0 18 17" version="1.1" xmlns="http://www.w3.org/2000/svg" xmlns:xlink="http://www.w3.org/1999/xlink">
    <g id="User-Profile" stroke="none" stroke-width="1" fill="none" fill-rule="evenodd">
        <g id="Layout" transform="translate(-986.000000, -106.000000)" fill="#FFFFFF">
            <g id="Control-bar" transform="translate(0.000000, 90.000000)">
                <path d="M989.928576,29.5714269 L986,29.5714269 L986,31 L989.928576,31 L989.928576,29.5714269 Z M993.857152,28.1428537 L991.000006,28.1428537 C990.60938,28.1428537 990.285719,28.4665148 990.285719,28.8571403 L990.285719,31.7142866 C990.285719,32.104912 990.60938,32.4285731 991.000006,32.4285731 L993.857152,32.4285731 C994.247778,32.4285731 994.571439,32.104912 994.571439,31.7142866 L994.571439,28.8571403 C994.571439,28.4665148 994.247778,28.1428537 993.857152,28.1428537 Z M995.642869,23.8571343 L986,23.8571343 L986,25.2857075 L995.642869,25.2857075 L995.642869,23.8571343 Z M988.500003,18.1428418 L986,18.1428418 L986,19.5714149 L988.500003,19.5714149 L988.500003,18.1428418 Z M1003.14288,29.5714269 L994.928582,29.5714269 L994.928582,31 L1003.14288,31 L1003.14288,29.5714269 Z M992.428579,16.7142687 L989.571433,16.7142687 C989.180807,16.7142687 988.857146,17.0379298 988.857146,17.4285553 L988.857146,20.2857015 C988.857146,20.676327 989.180807,20.9999881 989.571433,20.9999881 L992.428579,20.9999881 C992.819205,20.9999881 993.142866,20.676327 993.142866,20.2857015 L993.142866,17.4285553 C993.142866,17.0379298 992.819205,16.7142687 992.428579,16.7142687 Z M999.571445,22.4285612 L996.714298,22.4285612 C996.323673,22.4285612 996.000012,22.7522223 996.000012,23.1428478 L996.000012,25.999994 C996.000012,26.3906195 996.323673,26.7142806 996.714298,26.7142806 L999.571445,26.7142806 C999.96207,26.7142806 1000.28573,26.3906195 1000.28573,25.999994 L1000.28573,23.1428478 C1000.28573,22.7522223 999.96207,22.4285612 999.571445,22.4285612 Z M1003.14288,23.8571343 L1000.64287,23.8571343 L1000.64287,25.2857075 L1003.14288,25.2857075 L1003.14288,23.8571343 Z M1003.14288,18.1428418 L993.500009,18.1428418 L993.500009,19.5714149 L1003.14288,19.5714149 L1003.14288,18.1428418 Z" id=""></path>
            </g>
        </g>
    </g>
</svg>