<?xml version="1.0" encoding="UTF-8"?>
<svg width="16px" height="18px" viewBox="0 0 16 18" version="1.1" xmlns="http://www.w3.org/2000/svg" xmlns:xlink="http://www.w3.org/1999/xlink">
    <g id="User-Profile" stroke="none" stroke-width="1" fill="none" fill-rule="evenodd">
        <g id="Layout" transform="translate(-522.000000, -105.000000)" fill="#FFFFFF">
            <path d="M527.714293,112.071418 L527.714293,118.499997 C527.714293,118.70089 527.558042,118.85714 527.357149,118.85714 L526.642863,118.85714 C526.44197,118.85714 526.285719,118.70089 526.285719,118.499997 L526.285719,112.071418 C526.285719,111.870525 526.44197,111.714275 526.642863,111.714275 L527.357149,111.714275 C527.558042,111.714275 527.714293,111.870525 527.714293,112.071418 Z M530.571439,112.071418 L530.571439,118.499997 C530.571439,118.70089 530.415189,118.85714 530.214296,118.85714 L529.500009,118.85714 C529.299116,118.85714 529.142866,118.70089 529.142866,118.499997 L529.142866,112.071418 C529.142866,111.870525 529.299116,111.714275 529.500009,111.714275 L530.214296,111.714275 C530.415189,111.714275 530.571439,111.870525 530.571439,112.071418 Z M533.428585,112.071418 L533.428585,118.499997 C533.428585,118.70089 533.272335,118.85714 533.071442,118.85714 L532.357155,118.85714 C532.156262,118.85714 532.000012,118.70089 532.000012,118.499997 L532.000012,112.071418 C532.000012,111.870525 532.156262,111.714275 532.357155,111.714275 L533.071442,111.714275 C533.272335,111.714275 533.428585,111.870525 533.428585,112.071418 Z M534.857158,120.151785 L534.857158,109.571415 L524.857146,109.571415 L524.857146,120.151785 C524.857146,120.6875 525.158486,121 525.21429,121 L534.500015,121 C534.555819,121 534.857158,120.6875 534.857158,120.151785 Z M527.357149,108.142842 L532.357155,108.142842 L531.82144,106.837037 C531.787958,106.792394 531.687512,106.725429 531.631708,106.714269 L528.093757,106.714269 C528.026793,106.725429 527.937507,106.792394 527.904025,106.837037 L527.357149,108.142842 Z M537.714304,108.499985 L537.714304,109.214272 C537.714304,109.415165 537.558054,109.571415 537.357161,109.571415 L536.285731,109.571415 L536.285731,120.151785 C536.285731,121.379465 535.482159,122.428573 534.500015,122.428573 L525.21429,122.428573 C524.232146,122.428573 523.428573,121.424108 523.428573,120.196428 L523.428573,109.571415 L522.357143,109.571415 C522.15625,109.571415 522,109.415165 522,109.214272 L522,108.499985 C522,108.299092 522.15625,108.142842 522.357143,108.142842 L525.805808,108.142842 L526.587059,106.279 C526.810274,105.732125 527.479917,105.285696 528.071436,105.285696 L531.642869,105.285696 C532.234387,105.285696 532.904031,105.732125 533.127245,106.279 L533.908496,108.142842 L537.357161,108.142842 C537.558054,108.142842 537.714304,108.299092 537.714304,108.499985 Z" id=""></path>
        </g>
    </g>
</svg>