<?xml version="1.0" encoding="UTF-8"?>
<svg width="157px" height="46px" viewBox="0 0 157 46" version="1.1" xmlns="http://www.w3.org/2000/svg" xmlns:xlink="http://www.w3.org/1999/xlink">
    <g id="Symbols" stroke="none" stroke-width="1" fill="none" fill-rule="evenodd">
        <g id="logo" transform="translate(-1.000000, -3.000000)" fill="#F9F4F4">
            <path d="M15.68,18.496 C15.9360013,17.6853293 16.426663,17.0986685 17.152,16.736 C17.877337,16.3733315 18.6453293,16.2986656 19.456,16.512 C20.2666707,16.7680013 20.8533315,17.258663 21.216,17.984 C21.5786685,18.709337 21.6320013,19.4773293 21.376,20.288 C20.0959936,24.2560198 19.018671,27.5946531 18.144,30.304 C17.269329,33.0133469 16.5546694,35.263991 16,37.056 C15.4453306,38.848009 15.0080016,40.2239952 14.688,41.184 C14.3679984,42.1440048 14.1333341,42.8586643 13.984,43.328 C13.8346659,43.7973357 13.7386669,44.0853328 13.696,44.192 C13.6533331,44.2986672 13.632,44.3733331 13.632,44.416 C13.0346637,45.4400051 12.2240051,46.2506637 11.2,46.848 C10.1759949,47.4453363 9.06667264,47.744 7.872,47.744 C6.97599552,47.744 6.12267072,47.573335 5.312,47.232 C4.50132928,46.890665 3.79733632,46.4213363 3.2,45.824 C2.60266368,45.2266637 2.13333504,44.5226707 1.792,43.712 C1.45066496,42.9013293 1.28,42.0480045 1.28,41.152 L1.28,19.456 C1.28,18.6453293 1.56799712,17.9520029 2.144,17.376 C2.72000288,16.7999971 3.4346624,16.512 4.288,16.512 C5.1413376,16.512 5.84533056,16.7999971 6.4,17.376 C6.95466944,17.9520029 7.232,18.6666624 7.232,19.52 L7.232,41.152 C7.232,41.5786688 7.4453312,41.792 7.872,41.792 C8.00000064,41.792 8.12799936,41.7280006 8.256,41.6 C8.29866688,41.5146662 8.43733216,41.109337 8.672,40.384 C8.90666784,39.658663 9.19466496,38.7520054 9.536,37.664 C9.87733504,36.5759946 10.2719978,35.3386736 10.72,33.952 C11.1680022,32.5653264 11.6266643,31.168007 12.096,29.76 C13.2053389,26.4319834 14.3999936,22.6773542 15.68,18.496 Z M29.632,18.88 L29.632,44.928 C29.632,45.7813376 29.3440029,46.5066637 28.768,47.104 C28.1919971,47.7013363 27.4773376,48 26.624,48 C25.7706624,48 25.0453363,47.7013363 24.448,47.104 C23.8506637,46.5066637 23.552,45.7813376 23.552,44.928 L23.552,18.88 C23.552,18.0266624 23.8506637,17.3120029 24.448,16.736 C25.0453363,16.1599971 25.7706624,15.872 26.624,15.872 C27.4773376,15.872 28.1919971,16.1599971 28.768,16.736 C29.3440029,17.3120029 29.632,18.0266624 29.632,18.88 Z M29.568,11.328 L29.568,11.52 C29.568,12.3733376 29.2693363,13.0879971 28.672,13.664 C28.0746637,14.2400029 27.3706707,14.528 26.56,14.528 C25.7066624,14.528 24.9813363,14.2400029 24.384,13.664 C23.7866637,13.0879971 23.488,12.3733376 23.488,11.52 L23.488,11.328 C23.488,10.4746624 23.7866637,9.76000288 24.384,9.184 C24.9813363,8.60799712 25.7066624,8.32 26.56,8.32 C27.3706707,8.32 28.0746637,8.60799712 28.672,9.184 C29.2693363,9.76000288 29.568,10.4746624 29.568,11.328 Z M32.192,26.304 C32.192,24.895993 32.458664,23.5733395 32.992,22.336 C33.525336,21.0986605 34.2613286,20.0106714 35.2,19.072 C36.1386714,18.1333286 37.237327,17.397336 38.496,16.864 C39.754673,16.330664 41.087993,16.064 42.496,16.064 C44.8000115,16.064 46.847991,16.7466598 48.64,18.112 C49.4933376,18.7520032 50.2293302,19.509329 50.848,20.384 C51.4666698,21.258671 51.946665,22.229328 52.288,23.296 C52.5440013,24.1066707 52.4800019,24.8853296 52.096,25.632 C51.7119981,26.3786704 51.0933376,26.8799987 50.24,27.136 C49.3866624,27.3920013 48.5866704,27.3280019 47.84,26.944 C47.0933296,26.5599981 46.5920013,25.9413376 46.336,25.088 C46.0799987,24.2346624 45.589337,23.541336 44.864,23.008 C44.138663,22.474664 43.3493376,22.208 42.496,22.208 C41.3439942,22.208 40.3626707,22.6133293 39.552,23.424 C38.7413293,24.2346707 38.336,25.1946611 38.336,26.304 L38.336,27.456 C38.336,27.797335 38.4426656,28.063999 38.656,28.256 C38.8693344,28.448001 39.1253318,28.544 39.424,28.544 L45.376,28.544 C46.3573382,28.544 47.3173286,28.7786643 48.256,29.248 C49.1946714,29.7173357 50.026663,30.3999955 50.752,31.296 C51.3920032,32.021337 51.882665,32.8533286 52.224,33.792 C52.565335,34.7306714 52.736,35.6479955 52.736,36.544 L52.736,37.696 C52.736,39.104007 52.469336,40.437327 51.936,41.696 C51.402664,42.954673 50.6666714,44.0533286 49.728,44.992 C48.7893286,45.9306714 47.7013395,46.666664 46.464,47.2 C45.2266605,47.733336 43.904007,48 42.496,48 C40.0639878,48 37.9413424,47.2853405 36.128,45.856 C34.3146576,44.4266595 33.1093363,42.5600115 32.512,40.256 C32.2986656,39.4026624 32.4053312,38.613337 32.832,37.888 C33.2586688,37.162663 33.8986624,36.6933344 34.752,36.48 C35.6053376,36.2666656 36.3839965,36.3733312 37.088,36.8 C37.7920035,37.2266688 38.2506656,37.8666624 38.464,38.72 C38.7200013,39.6586714 39.210663,40.4159971 39.936,40.992 C40.661337,41.5680029 41.5146618,41.856 42.496,41.856 C43.6053389,41.856 44.5546627,41.4400042 45.344,40.608 C46.1333373,39.7759958 46.528,38.8053389 46.528,37.696 L46.528,36.544 C46.528,36.1173312 46.3786682,35.7120019 46.08,35.328 C45.7813318,34.9439981 45.5466675,34.752 45.376,34.752 L39.424,34.752 C38.4426618,34.752 37.514671,34.5600019 36.64,34.176 C35.765329,33.7919981 34.9973366,33.2693366 34.336,32.608 C33.6746634,31.9466634 33.1520019,31.1680045 32.768,30.272 C32.3839981,29.3759955 32.192,28.4373382 32.192,27.456 L32.192,26.304 Z M69.312,19.008 C69.312,18.1546624 69.6106637,17.4293363 70.208,16.832 C70.8053363,16.2346637 71.5306624,15.936 72.384,15.936 C73.2373376,15.936 73.9626637,16.2346637 74.56,16.832 C75.1573363,17.4293363 75.456,18.1546624 75.456,19.008 L75.456,37.696 C75.456,39.104007 75.189336,40.437327 74.656,41.696 C74.122664,42.954673 73.3866714,44.0426621 72.448,44.96 C71.5093286,45.8773379 70.4213395,46.602664 69.184,47.136 C67.9466605,47.669336 66.624007,47.936 65.216,47.936 C63.807993,47.936 62.4853395,47.669336 61.248,47.136 C60.0106605,46.602664 58.9226714,45.8773379 57.984,44.96 C57.0453286,44.0426621 56.309336,42.954673 55.776,41.696 C55.242664,40.437327 54.976,39.104007 54.976,37.696 L54.976,19.008 C54.976,18.1546624 55.2746637,17.4293363 55.872,16.832 C56.4693363,16.2346637 57.1946624,15.936 58.048,15.936 C58.9013376,15.936 59.6266637,16.2346637 60.224,16.832 C60.8213363,17.4293363 61.12,18.1546624 61.12,19.008 L61.12,37.696 C61.12,38.8480058 61.5253293,39.8186627 62.336,40.608 C63.1466707,41.3973373 64.1066611,41.792 65.216,41.792 C66.3680058,41.792 67.3386627,41.3973373 68.128,40.608 C68.9173373,39.8186627 69.312,38.8480058 69.312,37.696 L69.312,19.008 Z M88,15.808 C89.4506739,15.808 90.8159936,16.074664 92.096,16.608 C93.3760064,17.141336 94.4959952,17.8773286 95.456,18.816 C96.4160048,19.7546714 97.1733306,20.8426605 97.728,22.08 C98.2826694,23.3173395 98.56,24.639993 98.56,26.048 L98.56,44.672 C98.56,45.3120032 98.2506698,46.0053296 97.632,46.752 C97.0133302,47.4986704 96.2560045,47.872 95.36,47.872 C94.8479974,47.872 94.3893354,47.7120016 93.984,47.392 C93.5786646,47.0719984 93.2480013,46.6773357 92.992,46.208 C92.3093299,46.7200026 91.5840038,47.1146653 90.816,47.392 C90.0479962,47.6693347 89.1093389,47.808 88,47.808 C86.591993,47.808 85.2800061,47.5520026 84.064,47.04 C82.8479939,46.5279974 81.7920045,45.8240045 80.896,44.928 C79.9999955,44.0319955 79.2960026,42.9760061 78.784,41.76 C78.2719974,40.5439939 78.016,39.232007 78.016,37.824 L78.016,26.048 C78.016,24.639993 78.2719974,23.3173395 78.784,22.08 C79.2960026,20.8426605 79.9999955,19.7546714 80.896,18.816 C81.7920045,17.8773286 82.8479939,17.141336 84.064,16.608 C85.2800061,16.074664 86.591993,15.808 88,15.808 Z M88,41.344 C89.3653402,41.344 90.4319962,40.981337 91.2,40.256 C91.9680038,39.530663 92.352,38.7200045 92.352,37.824 L92.352,26.048 C92.352,24.8959942 91.9680038,23.9146707 91.2,23.104 C90.4319962,22.2933293 89.3653402,21.888 88,21.888 C87.1039955,21.888 86.293337,22.2933293 85.568,23.104 C84.842663,23.9146707 84.48,24.8959942 84.48,26.048 L84.48,37.824 C84.48,38.7200045 84.842663,39.530663 85.568,40.256 C86.293337,40.981337 87.1039955,41.344 88,41.344 Z M101.44,6.272 C101.44,5.4186624 101.74933,4.68266976 102.368,4.064 C102.98667,3.44533024 103.722662,3.136 104.576,3.136 C105.429338,3.136 106.154664,3.44533024 106.752,4.064 C107.349336,4.68266976 107.648,5.4186624 107.648,6.272 L107.648,45.12 C107.648,45.9733376 107.349336,46.7093302 106.752,47.328 C106.154664,47.9466698 105.429338,48.256 104.576,48.256 C103.722662,48.256 102.98667,47.9466698 102.368,47.328 C101.74933,46.7093302 101.44,45.9733376 101.44,45.12 L101.44,6.272 Z M116.992,18.88 L116.992,44.928 C116.992,45.7813376 116.704003,46.5066637 116.128,47.104 C115.551997,47.7013363 114.837338,48 113.984,48 C113.130662,48 112.405336,47.7013363 111.808,47.104 C111.210664,46.5066637 110.912,45.7813376 110.912,44.928 L110.912,18.88 C110.912,18.0266624 111.210664,17.3120029 111.808,16.736 C112.405336,16.1599971 113.130662,15.872 113.984,15.872 C114.837338,15.872 115.551997,16.1599971 116.128,16.736 C116.704003,17.3120029 116.992,18.0266624 116.992,18.88 Z M116.928,11.328 L116.928,11.52 C116.928,12.3733376 116.629336,13.0879971 116.032,13.664 C115.434664,14.2400029 114.730671,14.528 113.92,14.528 C113.066662,14.528 112.341336,14.2400029 111.744,13.664 C111.146664,13.0879971 110.848,12.3733376 110.848,11.52 L110.848,11.328 C110.848,10.4746624 111.146664,9.76000288 111.744,9.184 C112.341336,8.60799712 113.066662,8.32 113.92,8.32 C114.730671,8.32 115.434664,8.60799712 116.032,9.184 C116.629336,9.76000288 116.928,10.4746624 116.928,11.328 Z M119.552,26.304 C119.552,24.895993 119.818664,23.5733395 120.352,22.336 C120.885336,21.0986605 121.621329,20.0106714 122.56,19.072 C123.498671,18.1333286 124.597327,17.397336 125.856,16.864 C127.114673,16.330664 128.447993,16.064 129.856,16.064 C132.160012,16.064 134.207991,16.7466598 136,18.112 C136.853338,18.7520032 137.58933,19.509329 138.208,20.384 C138.82667,21.258671 139.306665,22.229328 139.648,23.296 C139.904001,24.1066707 139.840002,24.8853296 139.456,25.632 C139.071998,26.3786704 138.453338,26.8799987 137.6,27.136 C136.746662,27.3920013 135.94667,27.3280019 135.2,26.944 C134.45333,26.5599981 133.952001,25.9413376 133.696,25.088 C133.439999,24.2346624 132.949337,23.541336 132.224,23.008 C131.498663,22.474664 130.709338,22.208 129.856,22.208 C128.703994,22.208 127.722671,22.6133293 126.912,23.424 C126.101329,24.2346707 125.696,25.1946611 125.696,26.304 L125.696,27.456 C125.696,27.797335 125.802666,28.063999 126.016,28.256 C126.229334,28.448001 126.485332,28.544 126.784,28.544 L132.736,28.544 C133.717338,28.544 134.677329,28.7786643 135.616,29.248 C136.554671,29.7173357 137.386663,30.3999955 138.112,31.296 C138.752003,32.021337 139.242665,32.8533286 139.584,33.792 C139.925335,34.7306714 140.096,35.6479955 140.096,36.544 L140.096,37.696 C140.096,39.104007 139.829336,40.437327 139.296,41.696 C138.762664,42.954673 138.026671,44.0533286 137.088,44.992 C136.149329,45.9306714 135.06134,46.666664 133.824,47.2 C132.58666,47.733336 131.264007,48 129.856,48 C127.423988,48 125.301342,47.2853405 123.488,45.856 C121.674658,44.4266595 120.469336,42.5600115 119.872,40.256 C119.658666,39.4026624 119.765331,38.613337 120.192,37.888 C120.618669,37.162663 121.258662,36.6933344 122.112,36.48 C122.965338,36.2666656 123.743996,36.3733312 124.448,36.8 C125.152004,37.2266688 125.610666,37.8666624 125.824,38.72 C126.080001,39.6586714 126.570663,40.4159971 127.296,40.992 C128.021337,41.5680029 128.874662,41.856 129.856,41.856 C130.965339,41.856 131.914663,41.4400042 132.704,40.608 C133.493337,39.7759958 133.888,38.8053389 133.888,37.696 L133.888,36.544 C133.888,36.1173312 133.738668,35.7120019 133.44,35.328 C133.141332,34.9439981 132.906668,34.752 132.736,34.752 L126.784,34.752 C125.802662,34.752 124.874671,34.5600019 124,34.176 C123.125329,33.7919981 122.357337,33.2693366 121.696,32.608 C121.034663,31.9466634 120.512002,31.1680045 120.128,30.272 C119.743998,29.3759955 119.552,28.4373382 119.552,27.456 L119.552,26.304 Z M142.336,26.304 C142.336,24.895993 142.602664,23.562673 143.136,22.304 C143.669336,21.045327 144.405329,19.9466714 145.344,19.008 C146.282671,18.0693286 147.381327,17.333336 148.64,16.8 C149.898673,16.266664 151.231993,16 152.64,16 C153.664005,16 154.730661,16.170665 155.84,16.512 C156.693338,16.7680013 157.301332,17.2799962 157.664,18.048 C158.026668,18.8160038 158.080001,19.6053293 157.824,20.416 C157.567999,21.2693376 157.056004,21.8773315 156.288,22.24 C155.519996,22.6026685 154.730671,22.6560013 153.92,22.4 C153.493331,22.2719994 153.066669,22.208 152.64,22.208 C151.530661,22.208 150.570671,22.6133293 149.76,23.424 C148.949329,24.2346707 148.544,25.1946611 148.544,26.304 L148.544,44.864 C148.544,45.7173376 148.23467,46.4533302 147.616,47.072 C146.99733,47.6906698 146.261338,48 145.408,48 C144.554662,48 143.829336,47.6906698 143.232,47.072 C142.634664,46.4533302 142.336,45.7173376 142.336,44.864 L142.336,26.304 Z" id="VISUALiSR"></path>
        </g>
    </g>
</svg>